<svg xmlns="http://www.w3.org/2000/svg" width="512" height="512" viewBox="0 0 512.002 512.002"><path xmlns="http://www.w3.org/2000/svg" d="M291.66 77.984c7.719-28.807-9.377-58.416-38.183-66.135-28.807-7.719-58.416 9.377-66.135 38.183L291.66 77.984z" fill="#41589c" data-original="#41589c"/><path xmlns="http://www.w3.org/2000/svg" d="M291.649 77.984l-15.866 33.005L266 139.757l-15.5-7.833-12.276 10.556c-9.39 8.074-23.025 8.858-33.277 1.913l-10.833-7.338-34.956 22.107-83.396 64.813-65.757 42.03V137.501l126.655-37.266a55.86 55.86 0 0040.361-29.818l10.321-20.383 104.307 27.95z" fill="#da393f" data-original="#da393f"/><path xmlns="http://www.w3.org/2000/svg" d="M187.342 50.032l-10.321 20.384a55.809 55.809 0 01-13.462 17.137c4.991 20.757 15.868 38.335 30.217 49.716l.338-.214 10.833 7.338c.29.196.591.364.886.548a61.474 61.474 0 009.177 3.643c8.081 1.596 16.676-.48 23.215-6.103l12.276-10.556 15.5 7.833 9.783-28.768 15.866-33.005-104.308-27.953z" fill="#ffc89f" data-original="#ffc89f"/><path xmlns="http://www.w3.org/2000/svg" d="M274.202 111.865s-35.867.809-34.7-47.856l52.159 13.976-17.459 33.88z" fill="#85e6ed" data-original="#85e6ed"/><path xmlns="http://www.w3.org/2000/svg" d="M75.172 176.007v40.994a37.966 37.966 0 0023.45 35.082l113.339 47.963 22.82-9.084-65.066-67.492a58.068 58.068 0 01-15.498-49.7l6.522-39.763-85.567 42z" fill="#da393f" data-original="#da393f"/><path xmlns="http://www.w3.org/2000/svg" d="M392.999 233.006s-36.499-5.5-27-56.999c-22.209 10.52-32.216 28.673-31.962 48.859l-.37-1.193a72.949 72.949 0 00-55.864 26.037l-6.808 8.107c-36.537 43.51-92.765 65.349-149.092 57.906L10.005 300.937v201.065H289a35.031 35.031 0 00-10.885-25.387c-11.01-10.476-28.492-27.023-43.451-40.797l92.215-82.749c7.754 14.534 22.987 23.936 39.898 23.936h24.222l56.999 34.999h32.667l21.333-38.332-108.999-140.666zm-43.535 35.997l-1.158 1.864-2.212-7.132a102.322 102.322 0 003.37 5.268z" fill="#d87844" data-original="#d87844"/><path xmlns="http://www.w3.org/2000/svg" d="M416.998 271.942h-39.833s3.518 28.104 57.749 28.104l-17.916-28.104z" fill="#41589c" data-original="#41589c"/><path xmlns="http://www.w3.org/2000/svg" d="M509.901 367.545L400.903 226.88c-1.617-2.088-3.744-3.416-6.357-3.756-.882-.17-8.995-1.935-14.553-9.951-5.599-8.074-6.998-19.969-4.16-35.353a10 10 0 00-14.115-10.852c-18.477 8.752-30.768 22.74-35.542 40.45a60.656 60.656 0 00-1.399 6.73c-21.201 2.27-40.753 12.603-54.632 29.13l-6.808 8.107a157.428 157.428 0 01-27.793 25.963l-58.632-60.818c-10.476-10.867-15.271-26.247-12.829-41.141l1.374-8.38 28.469-18.004 5.413 3.667c13.955 9.453 32.625 8.378 45.405-2.61l7.21-6.199 9.536 4.819a9.997 9.997 0 0013.978-5.706l9.589-28.198 15.495-32.231a9.986 9.986 0 00.768-1.975c9.134-34.086-11.168-69.249-45.254-78.383-33.702-9.035-68.442 10.725-78.048 44.12L168.1 65.897c-6.521 12.88-18.909 22.031-33.136 24.481a9.784 9.784 0 00-1.126.262L7.183 127.907A10 10 0 00.005 137.5v128.505a10 10 0 0015.386 8.426l55.174-35.266a47.742 47.742 0 0024.159 22.129l93.354 39.505c-20.656 6.1-42.684 7.94-64.864 5.01L11.315 291.022a10.002 10.002 0 00-11.309 9.914v201.065c0 5.523 4.478 10 10 10h245.996c5.522 0 10-4.477 10-10s-4.478-10-10-10h-74.04c-9.812 0-18.756-4.979-23.925-13.319l-19.405-31.312c-2.908-4.694-9.071-6.141-13.768-3.232-4.694 2.909-6.142 9.073-3.232 13.768l19.405 31.313a49.6 49.6 0 001.866 2.783H20.006V312.345l100.589 13.292c29.299 3.873 59.347.263 86.896-10.438a175.047 175.047 0 0016.394-7.375l85.829 47.214-74.98 67.283c-5.297-4.82-9.7-8.746-13.11-11.684-2.829-2.438-5.003-4.226-6.645-5.464-8.078-6.094-13.312-2.976-15.713-.576-3.905 3.905-3.906 10.236-.002 14.142a9.948 9.948 0 003.542 2.289c4.978 3.652 25.354 21.857 68.418 62.831a25.152 25.152 0 017.778 18.143c0 5.523 4.478 10 10 10s10-4.477 10-10c0-12.277-5.1-24.171-13.992-32.631-9.658-9.19-22.911-21.735-35.498-33.438l75.61-67.848c10.242 11.785 25.252 18.92 41.658 18.92h21.396l54.592 33.521a10.003 10.003 0 005.232 1.478h32.667a10 10 0 008.738-5.137l21.333-38.332a10.01 10.01 0 00-.837-10.99zM211.871 420zm205.127-138.058c.41 0 .811-.032 1.208-.08l6.012 7.758c-13.321-1.106-21.91-4.244-27.422-7.678h20.202zm-71.513-69.315c1.674-6.204 4.697-11.675 9.04-16.376.609 11.263 3.74 20.903 9.375 28.806 7.618 10.684 17.635 15.086 23.319 16.817l3.331 4.299a81.041 81.041 0 00-37.742 9.161c-8.063-14.806-10.75-29.998-7.323-42.707zm-66.832 51.62l6.808-8.106a62.767 62.767 0 0139.333-21.821c1.535 10.765 5.417 21.81 11.493 32.47a78.549 78.549 0 00-3.002 2.834c-16.7 16.7-24.992 39.709-23.263 62.758l-66.255-36.447c12.954-8.942 24.727-19.59 34.886-31.688zM192.596 61.793l37.036 9.924c.115 2.055.287 4.063.536 6.005l-40.057-11.021 2.485-4.908zm60.988 26.206c-.032-.073-.068-.144-.102-.216-1.449-3.044-2.5-6.56-3.164-10.524l27.095 7.26-7.997 16.635c-3.107-.8-7.291-2.498-10.917-6.128-1.954-1.958-3.592-4.304-4.915-7.027zm-2.694-66.491c20.113 5.39 33.244 23.96 32.592 43.932l-82.786-22.183c9.421-17.622 30.078-27.137 50.194-21.749zM102.444 242.844A27.885 27.885 0 0185.172 217v-40.994c0-5.523-4.478-10-10-10s-10 4.477-10 10V217c0 .62.012 1.237.036 1.852l-45.203 28.893V144.981l118.945-34.998c16.406-2.982 31.063-12.174 40.955-25.348l57.72 15.88a44.764 44.764 0 006.723 8.643c5.876 5.884 12.376 9.047 17.842 10.748l-1.95 5.735-5.228-2.641a9.998 9.998 0 00-11.03 1.342l-12.276 10.556c-5.954 5.119-14.65 5.618-21.15 1.216l-10.833-7.338a10 10 0 00-10.953-.172l-18.982 12.005.817-4.982c.894-5.45-2.8-10.593-8.25-11.487-5.448-.894-10.593 2.799-11.486 8.25l-6.521 39.763c-3.459 21.092 3.332 42.871 18.167 58.259l55.788 57.868a156.934 156.934 0 01-3.788 1.99l-112.071-47.426zM335.835 348.63c-.059-.119-.122-.234-.186-.351l-.043-.082c-.034-.061-.062-.124-.098-.185a35.679 35.679 0 01-2.317-5.594 9.956 9.956 0 00-2.108-3.667 60.317 60.317 0 018.443-45.224l35.529 73.476h-8.278c-13.136.001-24.867-7.166-30.942-18.373zm138.95 53.373h-23.963l-52.096-31.989-44.519-92.067a60.319 60.319 0 0113.056-7.307 9.977 9.977 0 00-.021 2.544c.188 1.505 5.332 36.861 67.673 36.861a9.94 9.94 0 004.35-1.006l50.783 65.537-15.263 27.427z" data-original="#000000"/><path xmlns="http://www.w3.org/2000/svg" d="M107.735 416.502c-4.694 2.909-6.142 9.073-3.232 13.768l.305.492a9.991 9.991 0 0013.768 3.233c4.694-2.909 6.142-9.073 3.232-13.768l-.305-.492c-2.908-4.693-9.07-6.14-13.768-3.233zM458.998 393.004c6.065 0 11-4.935 11-11s-4.935-11-11-11-11 4.935-11 11 4.934 11 11 11z" data-original="#000000"/></svg>